# xmcd
#
# Track frame offsets: 
#        225
#        17596
#        44097
#        59580
#        80073
#        96345
#        111793
#        128695
#        145922
#        172654
#
# Disc length: 2465 seconds
#
# Revision: 0
# Processed by: cddbd v1.5.2PL0 Copyright (c) Steve Scherf et al.
# Submitted via: ExactAudioCopy v0.99pb4
#
DISCID=87099e0a
DTITLE=Caleb Sweazy - Goodbye Bonneville
DYEAR=2007
DGENRE=Country
TTITLE0=Troublesome
TTITLE1=Some Cool Summer Morn'
TTITLE2=Long Road
TTITLE3=American Dream
TTITLE4=The Hook
TTITLE5=Caroline
TTITLE6=Los Angeles
TTITLE7=Tattoo Teardrop Streaks
TTITLE8=Reap
TTITLE9=Hit the Road
EXTD=
EXTT0=
EXTT1=
EXTT2=
EXTT3=
EXTT4=
EXTT5=
EXTT6=
EXTT7=
EXTT8=
EXTT9=
PLAYORDER=
